<?xml version="1.0" encoding="utf-8" standalone="no"?>
<!DOCTYPE svg PUBLIC "-//W3C//DTD SVG 1.1//EN"
  "http://www.w3.org/Graphics/SVG/1.1/DTD/svg11.dtd">
<svg xmlns:xlink="http://www.w3.org/1999/xlink" width="749.517882pt" height="372.200706pt" viewBox="0 0 749.517882 372.200706" xmlns="http://www.w3.org/2000/svg" version="1.1">
 <metadata>
  <rdf:RDF xmlns:dc="http://purl.org/dc/elements/1.1/" xmlns:cc="http://creativecommons.org/ns#" xmlns:rdf="http://www.w3.org/1999/02/22-rdf-syntax-ns#">
   <cc:Work>
    <dc:type rdf:resource="http://purl.org/dc/dcmitype/StillImage"/>
    <dc:date>2025-10-21T18:37:07.998896</dc:date>
    <dc:format>image/svg+xml</dc:format>
    <dc:creator>
     <cc:Agent>
      <dc:title>Matplotlib v3.10.6, https://matplotlib.org/</dc:title>
     </cc:Agent>
    </dc:creator>
   </cc:Work>
  </rdf:RDF>
 </metadata>
 <defs>
  <style type="text/css">*{stroke-linejoin: round; stroke-linecap: butt}</style>
 </defs>
 <g id="figure_1">
  <g id="patch_1">
   <path d="M 0 372.200706 
L 749.517882 372.200706 
L 749.517882 0 
L 0 0 
z
" style="fill: #ffffff"/>
  </g>
  <g id="axes_1">
   <g id="patch_2">
    <path d="M 60.48382 351.440863 
L 730.08382 351.440863 
L 730.08382 18.800863 
L 60.48382 18.800863 
z
" style="fill: #ffffff"/>
   </g>
   <g id="matplotlib.axis_1">
    <g id="xtick_1">
     <g id="line2d_1"/>
     <g id="text_1">
      <!-- 2000 -->
      <g transform="translate(96.205195 362.814456) scale(0.11 -0.11)">
       <defs>
        <path id="ArialMT-32" d="M 3222 541 
L 3222 0 
L 194 0 
Q 188 203 259 391 
Q 375 700 629 1000 
Q 884 1300 1366 1694 
Q 2113 2306 2375 2664 
Q 2638 3022 2638 3341 
Q 2638 3675 2398 3904 
Q 2159 4134 1775 4134 
Q 1369 4134 1125 3890 
Q 881 3647 878 3216 
L 300 3275 
Q 359 3922 746 4261 
Q 1134 4600 1788 4600 
Q 2447 4600 2831 4234 
Q 3216 3869 3216 3328 
Q 3216 3053 3103 2787 
Q 2991 2522 2730 2228 
Q 2469 1934 1863 1422 
Q 1356 997 1212 845 
Q 1069 694 975 541 
L 3222 541 
z
" transform="scale(0.015625)"/>
        <path id="ArialMT-30" d="M 266 2259 
Q 266 3072 433 3567 
Q 600 4063 929 4331 
Q 1259 4600 1759 4600 
Q 2128 4600 2406 4451 
Q 2684 4303 2865 4023 
Q 3047 3744 3150 3342 
Q 3253 2941 3253 2259 
Q 3253 1453 3087 958 
Q 2922 463 2592 192 
Q 2263 -78 1759 -78 
Q 1097 -78 719 397 
Q 266 969 266 2259 
z
M 844 2259 
Q 844 1131 1108 757 
Q 1372 384 1759 384 
Q 2147 384 2411 759 
Q 2675 1134 2675 2259 
Q 2675 3391 2411 3762 
Q 2147 4134 1753 4134 
Q 1366 4134 1134 3806 
Q 844 3388 844 2259 
z
" transform="scale(0.015625)"/>
       </defs>
       <use xlink:href="#ArialMT-32"/>
       <use xlink:href="#ArialMT-30" transform="translate(55.615234 0)"/>
       <use xlink:href="#ArialMT-30" transform="translate(111.230469 0)"/>
       <use xlink:href="#ArialMT-30" transform="translate(166.845703 0)"/>
      </g>
     </g>
    </g>
    <g id="xtick_2">
     <g id="line2d_2"/>
     <g id="text_2">
      <!-- 2005 -->
      <g transform="translate(185.011561 362.814456) scale(0.11 -0.11)">
       <defs>
        <path id="ArialMT-35" d="M 266 1200 
L 856 1250 
Q 922 819 1161 601 
Q 1400 384 1738 384 
Q 2144 384 2425 690 
Q 2706 997 2706 1503 
Q 2706 1984 2436 2262 
Q 2166 2541 1728 2541 
Q 1456 2541 1237 2417 
Q 1019 2294 894 2097 
L 366 2166 
L 809 4519 
L 3088 4519 
L 3088 3981 
L 1259 3981 
L 1013 2750 
Q 1425 3038 1878 3038 
Q 2478 3038 2890 2622 
Q 3303 2206 3303 1553 
Q 3303 931 2941 478 
Q 2500 -78 1738 -78 
Q 1113 -78 717 272 
Q 322 622 266 1200 
z
" transform="scale(0.015625)"/>
       </defs>
       <use xlink:href="#ArialMT-32"/>
       <use xlink:href="#ArialMT-30" transform="translate(55.615234 0)"/>
       <use xlink:href="#ArialMT-30" transform="translate(111.230469 0)"/>
       <use xlink:href="#ArialMT-35" transform="translate(166.845703 0)"/>
      </g>
     </g>
    </g>
    <g id="xtick_3">
     <g id="line2d_3"/>
     <g id="text_3">
      <!-- 2010 -->
      <g transform="translate(273.817927 362.814456) scale(0.11 -0.11)">
       <defs>
        <path id="ArialMT-31" d="M 2384 0 
L 1822 0 
L 1822 3584 
Q 1619 3391 1289 3197 
Q 959 3003 697 2906 
L 697 3450 
Q 1169 3672 1522 3987 
Q 1875 4303 2022 4600 
L 2384 4600 
L 2384 0 
z
" transform="scale(0.015625)"/>
       </defs>
       <use xlink:href="#ArialMT-32"/>
       <use xlink:href="#ArialMT-30" transform="translate(55.615234 0)"/>
       <use xlink:href="#ArialMT-31" transform="translate(111.230469 0)"/>
       <use xlink:href="#ArialMT-30" transform="translate(166.845703 0)"/>
      </g>
     </g>
    </g>
    <g id="xtick_4">
     <g id="line2d_4"/>
     <g id="text_4">
      <!-- 2015 -->
      <g transform="translate(362.624293 362.814456) scale(0.11 -0.11)">
       <use xlink:href="#ArialMT-32"/>
       <use xlink:href="#ArialMT-30" transform="translate(55.615234 0)"/>
       <use xlink:href="#ArialMT-31" transform="translate(111.230469 0)"/>
       <use xlink:href="#ArialMT-35" transform="translate(166.845703 0)"/>
      </g>
     </g>
    </g>
    <g id="xtick_5">
     <g id="line2d_5"/>
     <g id="text_5">
      <!-- 2020 -->
      <g transform="translate(451.430659 362.814456) scale(0.11 -0.11)">
       <use xlink:href="#ArialMT-32"/>
       <use xlink:href="#ArialMT-30" transform="translate(55.615234 0)"/>
       <use xlink:href="#ArialMT-32" transform="translate(111.230469 0)"/>
       <use xlink:href="#ArialMT-30" transform="translate(166.845703 0)"/>
      </g>
     </g>
    </g>
    <g id="xtick_6">
     <g id="line2d_6"/>
     <g id="text_6">
      <!-- 2025 -->
      <g transform="translate(540.237025 362.814456) scale(0.11 -0.11)">
       <use xlink:href="#ArialMT-32"/>
       <use xlink:href="#ArialMT-30" transform="translate(55.615234 0)"/>
       <use xlink:href="#ArialMT-32" transform="translate(111.230469 0)"/>
       <use xlink:href="#ArialMT-35" transform="translate(166.845703 0)"/>
      </g>
     </g>
    </g>
    <g id="xtick_7">
     <g id="line2d_7"/>
     <g id="text_7">
      <!-- 2030 -->
      <g transform="translate(629.043391 362.814456) scale(0.11 -0.11)">
       <defs>
        <path id="ArialMT-33" d="M 269 1209 
L 831 1284 
Q 928 806 1161 595 
Q 1394 384 1728 384 
Q 2125 384 2398 659 
Q 2672 934 2672 1341 
Q 2672 1728 2419 1979 
Q 2166 2231 1775 2231 
Q 1616 2231 1378 2169 
L 1441 2663 
Q 1497 2656 1531 2656 
Q 1891 2656 2178 2843 
Q 2466 3031 2466 3422 
Q 2466 3731 2256 3934 
Q 2047 4138 1716 4138 
Q 1388 4138 1169 3931 
Q 950 3725 888 3313 
L 325 3413 
Q 428 3978 793 4289 
Q 1159 4600 1703 4600 
Q 2078 4600 2393 4439 
Q 2709 4278 2876 4000 
Q 3044 3722 3044 3409 
Q 3044 3113 2884 2869 
Q 2725 2625 2413 2481 
Q 2819 2388 3044 2092 
Q 3269 1797 3269 1353 
Q 3269 753 2831 336 
Q 2394 -81 1725 -81 
Q 1122 -81 723 278 
Q 325 638 269 1209 
z
" transform="scale(0.015625)"/>
       </defs>
       <use xlink:href="#ArialMT-32"/>
       <use xlink:href="#ArialMT-30" transform="translate(55.615234 0)"/>
       <use xlink:href="#ArialMT-33" transform="translate(111.230469 0)"/>
       <use xlink:href="#ArialMT-30" transform="translate(166.845703 0)"/>
      </g>
     </g>
    </g>
    <g id="xtick_8">
     <g id="line2d_8"/>
     <g id="text_8">
      <!-- 2035 -->
      <g transform="translate(717.849757 362.814456) scale(0.11 -0.11)">
       <use xlink:href="#ArialMT-32"/>
       <use xlink:href="#ArialMT-30" transform="translate(55.615234 0)"/>
       <use xlink:href="#ArialMT-33" transform="translate(111.230469 0)"/>
       <use xlink:href="#ArialMT-35" transform="translate(166.845703 0)"/>
      </g>
     </g>
    </g>
   </g>
   <g id="matplotlib.axis_2">
    <g id="ytick_1">
     <g id="line2d_9">
      <path d="M 60.48382 351.440863 
L 730.08382 351.440863 
" clip-path="url(#p4c565fc7cf)" style="fill: none; stroke: #b0b0b0; stroke-opacity: 0.3; stroke-width: 0.8; stroke-linecap: square"/>
     </g>
     <g id="line2d_10"/>
     <g id="text_9">
      <!-- 0 -->
      <g transform="translate(50.866788 355.377659) scale(0.11 -0.11)">
       <use xlink:href="#ArialMT-30"/>
      </g>
     </g>
    </g>
    <g id="ytick_2">
     <g id="line2d_11">
      <path d="M 60.48382 282.649211 
L 730.08382 282.649211 
" clip-path="url(#p4c565fc7cf)" style="fill: none; stroke: #b0b0b0; stroke-opacity: 0.3; stroke-width: 0.8; stroke-linecap: square"/>
     </g>
     <g id="line2d_12"/>
     <g id="text_10">
      <!-- 5 -->
      <g transform="translate(50.866788 286.586008) scale(0.11 -0.11)">
       <use xlink:href="#ArialMT-35"/>
      </g>
     </g>
    </g>
    <g id="ytick_3">
     <g id="line2d_13">
      <path d="M 60.48382 213.857559 
L 730.08382 213.857559 
" clip-path="url(#p4c565fc7cf)" style="fill: none; stroke: #b0b0b0; stroke-opacity: 0.3; stroke-width: 0.8; stroke-linecap: square"/>
     </g>
     <g id="line2d_14"/>
     <g id="text_11">
      <!-- 10 -->
      <g transform="translate(44.749757 217.794356) scale(0.11 -0.11)">
       <use xlink:href="#ArialMT-31"/>
       <use xlink:href="#ArialMT-30" transform="translate(55.615234 0)"/>
      </g>
     </g>
    </g>
    <g id="ytick_4">
     <g id="line2d_15">
      <path d="M 60.48382 145.065907 
L 730.08382 145.065907 
" clip-path="url(#p4c565fc7cf)" style="fill: none; stroke: #b0b0b0; stroke-opacity: 0.3; stroke-width: 0.8; stroke-linecap: square"/>
     </g>
     <g id="line2d_16"/>
     <g id="text_12">
      <!-- 15 -->
      <g transform="translate(44.749757 149.002704) scale(0.11 -0.11)">
       <use xlink:href="#ArialMT-31"/>
       <use xlink:href="#ArialMT-35" transform="translate(55.615234 0)"/>
      </g>
     </g>
    </g>
    <g id="ytick_5">
     <g id="line2d_17">
      <path d="M 60.48382 76.274255 
L 730.08382 76.274255 
" clip-path="url(#p4c565fc7cf)" style="fill: none; stroke: #b0b0b0; stroke-opacity: 0.3; stroke-width: 0.8; stroke-linecap: square"/>
     </g>
     <g id="line2d_18"/>
     <g id="text_13">
      <!-- 20 -->
      <g transform="translate(44.749757 80.211052) scale(0.11 -0.11)">
       <use xlink:href="#ArialMT-32"/>
       <use xlink:href="#ArialMT-30" transform="translate(55.615234 0)"/>
      </g>
     </g>
    </g>
    <g id="text_14">
     <!-- Объем потребления тепла -->
     <g transform="translate(38.563507 253.203988) rotate(-90) scale(0.11 -0.11)">
      <defs>
       <path id="ArialMT-41e" d="M 309 2231 
Q 309 3372 921 4017 
Q 1534 4663 2503 4663 
Q 3138 4663 3647 4359 
Q 4156 4056 4423 3514 
Q 4691 2972 4691 2284 
Q 4691 1588 4409 1038 
Q 4128 488 3612 205 
Q 3097 -78 2500 -78 
Q 1853 -78 1343 234 
Q 834 547 571 1087 
Q 309 1628 309 2231 
z
M 934 2222 
Q 934 1394 1379 917 
Q 1825 441 2497 441 
Q 3181 441 3623 922 
Q 4066 1403 4066 2288 
Q 4066 2847 3877 3264 
Q 3688 3681 3323 3911 
Q 2959 4141 2506 4141 
Q 1863 4141 1398 3698 
Q 934 3256 934 2222 
z
" transform="scale(0.015625)"/>
       <path id="ArialMT-431" d="M 2853 4691 
L 3350 4684 
Q 3316 4350 3202 4219 
Q 3088 4088 2908 4050 
Q 2728 4013 2203 4013 
Q 1506 4013 1253 3878 
Q 1000 3744 889 3448 
Q 778 3153 766 2688 
Q 978 3003 1262 3161 
Q 1547 3319 1903 3319 
Q 2556 3319 2984 2870 
Q 3413 2422 3413 1656 
Q 3413 1075 3197 703 
Q 2981 331 2686 128 
Q 2391 -75 1881 -75 
Q 1291 -75 962 195 
Q 634 466 459 887 
Q 284 1309 284 2356 
Q 284 3672 729 4128 
Q 1175 4584 2100 4584 
Q 2675 4584 2753 4603 
Q 2831 4622 2853 4691 
z
M 2825 1672 
Q 2825 2191 2579 2522 
Q 2334 2853 1888 2853 
Q 1422 2853 1169 2503 
Q 916 2153 916 1569 
Q 916 991 1195 684 
Q 1475 378 1884 378 
Q 2303 378 2564 733 
Q 2825 1088 2825 1672 
z
" transform="scale(0.015625)"/>
       <path id="ArialMT-44a" d="M 125 3319 
L 1609 3319 
L 1609 2022 
L 2325 2022 
Q 3084 2022 3428 1726 
Q 3772 1431 3772 1003 
Q 3772 559 3439 279 
Q 3106 0 2456 0 
L 1047 0 
L 1047 2853 
L 125 2853 
L 125 3319 
z
M 1609 456 
L 2200 456 
Q 2738 456 2963 586 
Q 3188 716 3188 1003 
Q 3188 1266 2995 1409 
Q 2803 1553 2275 1553 
L 1609 1553 
L 1609 456 
z
" transform="scale(0.015625)"/>
       <path id="ArialMT-435" d="M 2694 1069 
L 3275 997 
Q 3138 488 2766 206 
Q 2394 -75 1816 -75 
Q 1088 -75 661 373 
Q 234 822 234 1631 
Q 234 2469 665 2931 
Q 1097 3394 1784 3394 
Q 2450 3394 2872 2941 
Q 3294 2488 3294 1666 
Q 3294 1616 3291 1516 
L 816 1516 
Q 847 969 1125 678 
Q 1403 388 1819 388 
Q 2128 388 2347 550 
Q 2566 713 2694 1069 
z
M 847 1978 
L 2700 1978 
Q 2663 2397 2488 2606 
Q 2219 2931 1791 2931 
Q 1403 2931 1139 2672 
Q 875 2413 847 1978 
z
" transform="scale(0.015625)"/>
       <path id="ArialMT-43c" d="M 438 3319 
L 1313 3319 
L 2184 663 
L 3153 3319 
L 3963 3319 
L 3963 0 
L 3400 0 
L 3400 2672 
L 2419 0 
L 1916 0 
L 988 2800 
L 988 0 
L 438 0 
L 438 3319 
z
" transform="scale(0.015625)"/>
       <path id="ArialMT-20" transform="scale(0.015625)"/>
       <path id="ArialMT-43f" d="M 425 3319 
L 3044 3319 
L 3044 0 
L 2481 0 
L 2481 2853 
L 988 2853 
L 988 0 
L 425 0 
L 425 3319 
z
" transform="scale(0.015625)"/>
       <path id="ArialMT-43e" d="M 213 1659 
Q 213 2581 725 3025 
Q 1153 3394 1769 3394 
Q 2453 3394 2887 2945 
Q 3322 2497 3322 1706 
Q 3322 1066 3130 698 
Q 2938 331 2570 128 
Q 2203 -75 1769 -75 
Q 1072 -75 642 372 
Q 213 819 213 1659 
z
M 791 1659 
Q 791 1022 1069 705 
Q 1347 388 1769 388 
Q 2188 388 2466 706 
Q 2744 1025 2744 1678 
Q 2744 2294 2464 2611 
Q 2184 2928 1769 2928 
Q 1347 2928 1069 2612 
Q 791 2297 791 1659 
z
" transform="scale(0.015625)"/>
       <path id="ArialMT-442" d="M 119 3319 
L 2816 3319 
L 2816 2853 
L 1747 2853 
L 1747 0 
L 1188 0 
L 1188 2853 
L 119 2853 
L 119 3319 
z
" transform="scale(0.015625)"/>
       <path id="ArialMT-440" d="M 422 -1272 
L 422 3319 
L 934 3319 
L 934 2888 
Q 1116 3141 1344 3267 
Q 1572 3394 1897 3394 
Q 2322 3394 2647 3175 
Q 2972 2956 3137 2557 
Q 3303 2159 3303 1684 
Q 3303 1175 3120 767 
Q 2938 359 2589 142 
Q 2241 -75 1856 -75 
Q 1575 -75 1351 44 
Q 1128 163 984 344 
L 984 -1272 
L 422 -1272 
z
M 931 1641 
Q 931 1000 1190 694 
Q 1450 388 1819 388 
Q 2194 388 2461 705 
Q 2728 1022 2728 1688 
Q 2728 2322 2467 2637 
Q 2206 2953 1844 2953 
Q 1484 2953 1207 2617 
Q 931 2281 931 1641 
z
" transform="scale(0.015625)"/>
       <path id="ArialMT-43b" d="M 697 3319 
L 3309 3319 
L 3309 0 
L 2750 0 
L 2750 2853 
L 1259 2853 
L 1259 1200 
Q 1259 622 1221 437 
Q 1184 253 1015 115 
Q 847 -22 528 -22 
Q 331 -22 75 3 
L 75 472 
L 322 472 
Q 497 472 572 508 
Q 647 544 672 622 
Q 697 700 697 1131 
L 697 3319 
z
" transform="scale(0.015625)"/>
       <path id="ArialMT-43d" d="M 425 3319 
L 988 3319 
L 988 1938 
L 2547 1938 
L 2547 3319 
L 3109 3319 
L 3109 0 
L 2547 0 
L 2547 1472 
L 988 1472 
L 988 0 
L 425 0 
L 425 3319 
z
" transform="scale(0.015625)"/>
       <path id="ArialMT-438" d="M 422 3319 
L 984 3319 
L 984 788 
L 2544 3319 
L 3150 3319 
L 3150 0 
L 2588 0 
L 2588 2516 
L 1028 0 
L 422 0 
L 422 3319 
z
" transform="scale(0.015625)"/>
       <path id="ArialMT-44f" d="M 3034 3319 
L 3034 0 
L 2475 0 
L 2475 1294 
L 2150 1294 
Q 1853 1294 1708 1217 
Q 1563 1141 1284 725 
L 794 0 
L 97 0 
L 703 894 
Q 981 1303 1256 1356 
Q 775 1422 542 1703 
Q 309 1984 309 2350 
Q 309 2781 614 3050 
Q 919 3319 1497 3319 
L 3034 3319 
z
M 2475 2853 
L 1675 2853 
Q 1172 2853 1026 2697 
Q 881 2541 881 2331 
Q 881 2034 1095 1895 
Q 1309 1756 1853 1756 
L 2475 1756 
L 2475 2853 
z
" transform="scale(0.015625)"/>
       <path id="ArialMT-430" d="M 2588 409 
Q 2275 144 1986 34 
Q 1697 -75 1366 -75 
Q 819 -75 525 192 
Q 231 459 231 875 
Q 231 1119 342 1320 
Q 453 1522 633 1644 
Q 813 1766 1038 1828 
Q 1203 1872 1538 1913 
Q 2219 1994 2541 2106 
Q 2544 2222 2544 2253 
Q 2544 2597 2384 2738 
Q 2169 2928 1744 2928 
Q 1347 2928 1158 2789 
Q 969 2650 878 2297 
L 328 2372 
Q 403 2725 575 2942 
Q 747 3159 1072 3276 
Q 1397 3394 1825 3394 
Q 2250 3394 2515 3294 
Q 2781 3194 2906 3042 
Q 3031 2891 3081 2659 
Q 3109 2516 3109 2141 
L 3109 1391 
Q 3109 606 3145 398 
Q 3181 191 3288 0 
L 2700 0 
Q 2613 175 2588 409 
z
M 2541 1666 
Q 2234 1541 1622 1453 
Q 1275 1403 1131 1340 
Q 988 1278 909 1158 
Q 831 1038 831 891 
Q 831 666 1001 516 
Q 1172 366 1500 366 
Q 1825 366 2078 508 
Q 2331 650 2450 897 
Q 2541 1088 2541 1459 
L 2541 1666 
z
" transform="scale(0.015625)"/>
      </defs>
      <use xlink:href="#ArialMT-41e"/>
      <use xlink:href="#ArialMT-431" transform="translate(77.783203 0)"/>
      <use xlink:href="#ArialMT-44a" transform="translate(131.683594 0)"/>
      <use xlink:href="#ArialMT-435" transform="translate(194.183594 0)"/>
      <use xlink:href="#ArialMT-43c" transform="translate(249.798828 0)"/>
      <use xlink:href="#ArialMT-20" transform="translate(318.548828 0)"/>
      <use xlink:href="#ArialMT-43f" transform="translate(346.332031 0)"/>
      <use xlink:href="#ArialMT-43e" transform="translate(400.482422 0)"/>
      <use xlink:href="#ArialMT-442" transform="translate(453.847656 0)"/>
      <use xlink:href="#ArialMT-440" transform="translate(499.648438 0)"/>
      <use xlink:href="#ArialMT-435" transform="translate(555.263672 0)"/>
      <use xlink:href="#ArialMT-431" transform="translate(609.753906 0)"/>
      <use xlink:href="#ArialMT-43b" transform="translate(662.529297 0)"/>
      <use xlink:href="#ArialMT-435" transform="translate(720.878906 0)"/>
      <use xlink:href="#ArialMT-43d" transform="translate(776.494141 0)"/>
      <use xlink:href="#ArialMT-438" transform="translate(831.71875 0)"/>
      <use xlink:href="#ArialMT-44f" transform="translate(887.578125 0)"/>
      <use xlink:href="#ArialMT-20" transform="translate(941.728516 0)"/>
      <use xlink:href="#ArialMT-442" transform="translate(969.511719 0)"/>
      <use xlink:href="#ArialMT-435" transform="translate(1014.1875 0)"/>
      <use xlink:href="#ArialMT-43f" transform="translate(1069.802734 0)"/>
      <use xlink:href="#ArialMT-43b" transform="translate(1123.953125 0)"/>
      <use xlink:href="#ArialMT-430" transform="translate(1182.302734 0)"/>
     </g>
    </g>
   </g>
   <g id="line2d_19">
    <path d="M 108.439257 70.827332 
L 126.200531 75.514795 
L 143.961804 67.998619 
L 161.723077 57.201081 
L 179.48435 62.935554 
L 197.245623 63.725282 
L 215.006897 69.616599 
L 232.76817 83.560667 
L 250.529443 81.744567 
L 268.290716 92.059187 
L 286.051989 92.349488 
L 303.813263 72.536117 
L 321.574536 84.867708 
L 339.335809 87.32357 
L 357.097082 62.664514 
L 374.858355 59.391408 
L 392.619629 50.36044 
L 410.380902 61.676666 
L 428.142175 55.650518 
L 445.903448 68.267732 
L 463.664721 58.490099 
L 481.425995 46.178182 
L 499.187268 50.75668 
L 516.948541 52.559021 
L 534.709814 42.633761 
" clip-path="url(#p4c565fc7cf)" style="fill: none; stroke: #e1636c; stroke-width: 1.5; stroke-linecap: square"/>
   </g>
   <g id="line2d_20">
    <path d="M 108.439257 76.953766 
L 126.200531 75.650677 
L 143.961804 77.814996 
L 161.723077 75.676513 
L 179.48435 75.634993 
L 197.245623 75.601464 
L 215.006897 75.616203 
L 232.76817 73.874839 
L 250.529443 73.643431 
L 268.290716 72.388065 
L 286.051989 70.668457 
L 303.813263 69.826089 
L 321.574536 66.177008 
L 339.335809 65.74522 
L 357.097082 63.886714 
L 374.858355 61.241301 
L 392.619629 60.288037 
L 410.380902 59.002497 
L 428.142175 58.508716 
L 445.903448 56.763218 
L 463.664721 57.760085 
L 481.425995 56.393317 
L 499.187268 59.824379 
L 516.948541 56.341748 
L 534.709814 55.607851 
L 552.471088 53.051744 
L 570.232361 51.991448 
L 587.993634 50.931153 
L 605.754907 49.870858 
L 623.51618 48.810562 
L 641.277454 47.750267 
L 659.038727 46.689971 
L 676.8 45.629676 
L 694.561273 44.569381 
L 712.322546 43.509085 
L 730.08382 42.44879 
L 747.845093 41.388495 
L 750.517882 41.228937 
" clip-path="url(#p4c565fc7cf)" style="fill: none; stroke-dasharray: 7.4,3.2; stroke-dashoffset: 0; stroke: #63bbf0; stroke-width: 2"/>
   </g>
   <g id="line2d_21">
    <path d="M 534.709814 351.440863 
L 534.709814 18.800863 
" clip-path="url(#p4c565fc7cf)" style="fill: none; stroke-dasharray: 1.5,2.475; stroke-dashoffset: 0; stroke: #576b82; stroke-width: 1.5"/>
   </g>
   <g id="patch_3">
    <path d="M 60.48382 351.440863 
L 60.48382 18.800863 
" style="fill: none; stroke: #000000; stroke-width: 0.8; stroke-linejoin: miter; stroke-linecap: square"/>
   </g>
   <g id="patch_4">
    <path d="M 60.48382 351.440863 
L 730.08382 351.440863 
" style="fill: none; stroke: #000000; stroke-width: 0.8; stroke-linejoin: miter; stroke-linecap: square"/>
   </g>
   <g id="text_15">
    <!-- млн Гкал -->
    <g transform="translate(7.2 15.073594) scale(0.11 -0.11)">
     <defs>
      <path id="ArialMT-413" d="M 503 4581 
L 3466 4581 
L 3466 4041 
L 1109 4041 
L 1109 0 
L 503 0 
L 503 4581 
z
" transform="scale(0.015625)"/>
      <path id="ArialMT-43a" d="M 419 3319 
L 981 3319 
L 981 1884 
Q 1250 1884 1358 1987 
Q 1466 2091 1675 2588 
Q 1841 2981 1944 3106 
Q 2047 3231 2181 3275 
Q 2316 3319 2613 3319 
L 2725 3319 
L 2725 2853 
L 2569 2856 
Q 2347 2856 2284 2791 
Q 2219 2722 2084 2381 
Q 1956 2056 1850 1931 
Q 1744 1806 1522 1703 
Q 1884 1606 2234 1028 
L 2850 0 
L 2231 0 
L 1631 1028 
Q 1447 1338 1309 1436 
Q 1172 1534 981 1534 
L 981 0 
L 419 0 
L 419 3319 
z
" transform="scale(0.015625)"/>
     </defs>
     <use xlink:href="#ArialMT-43c"/>
     <use xlink:href="#ArialMT-43b" transform="translate(68.75 0)"/>
     <use xlink:href="#ArialMT-43d" transform="translate(127.099609 0)"/>
     <use xlink:href="#ArialMT-20" transform="translate(182.324219 0)"/>
     <use xlink:href="#ArialMT-413" transform="translate(210.107422 0)"/>
     <use xlink:href="#ArialMT-43a" transform="translate(264.257812 0)"/>
     <use xlink:href="#ArialMT-430" transform="translate(310.257812 0)"/>
     <use xlink:href="#ArialMT-43b" transform="translate(365.873047 0)"/>
    </g>
   </g>
   <g id="legend_1">
    <g id="patch_5">
     <path d="M 68.18382 345.940863 
L 439.169132 345.940863 
Q 441.369132 345.940863 441.369132 343.740863 
L 441.369132 313.2743 
Q 441.369132 311.0743 439.169132 311.0743 
L 68.18382 311.0743 
Q 65.98382 311.0743 65.98382 313.2743 
L 65.98382 343.740863 
Q 65.98382 345.940863 68.18382 345.940863 
z
" style="fill: #ffffff; opacity: 0.8; stroke: #cccccc; stroke-linejoin: miter"/>
    </g>
    <g id="line2d_22">
     <path d="M 70.38382 319.686956 
L 81.38382 319.686956 
L 92.38382 319.686956 
" style="fill: none; stroke: #e1636c; stroke-width: 1.5; stroke-linecap: square"/>
    </g>
    <g id="text_16">
     <!-- Фактическое потребление тепла (2000–2024) -->
     <g transform="translate(101.18382 323.536956) scale(0.11 -0.11)">
      <defs>
       <path id="ArialMT-424" d="M 2150 4031 
L 2150 4619 
L 2719 4619 
L 2719 4031 
Q 3594 3984 4100 3504 
Q 4606 3025 4606 2313 
Q 4606 1616 4115 1128 
Q 3625 641 2719 591 
L 2719 0 
L 2150 0 
L 2150 591 
Q 1338 622 797 1086 
Q 256 1550 256 2313 
Q 256 3078 795 3537 
Q 1334 3997 2150 4031 
z
M 2719 3513 
L 2719 1113 
Q 3306 1141 3643 1453 
Q 3981 1766 3981 2313 
Q 3981 2850 3650 3164 
Q 3319 3478 2719 3513 
z
M 2150 3509 
Q 1584 3484 1234 3175 
Q 884 2866 884 2313 
Q 884 1766 1229 1453 
Q 1575 1141 2150 1116 
L 2150 3509 
z
" transform="scale(0.015625)"/>
       <path id="ArialMT-447" d="M 216 3319 
L 778 3319 
L 778 2691 
Q 778 2284 826 2101 
Q 875 1919 1059 1783 
Q 1244 1647 1522 1647 
Q 1841 1647 2347 1816 
L 2347 3319 
L 2909 3319 
L 2909 0 
L 2347 0 
L 2347 1338 
Q 1828 1175 1378 1175 
Q 1000 1175 711 1367 
Q 422 1559 319 1837 
Q 216 2116 216 2450 
L 216 3319 
z
" transform="scale(0.015625)"/>
       <path id="ArialMT-441" d="M 2588 1216 
L 3141 1144 
Q 3050 572 2676 248 
Q 2303 -75 1759 -75 
Q 1078 -75 664 370 
Q 250 816 250 1647 
Q 250 2184 428 2587 
Q 606 2991 970 3192 
Q 1334 3394 1763 3394 
Q 2303 3394 2647 3120 
Q 2991 2847 3088 2344 
L 2541 2259 
Q 2463 2594 2264 2762 
Q 2066 2931 1784 2931 
Q 1359 2931 1093 2626 
Q 828 2322 828 1663 
Q 828 994 1084 691 
Q 1341 388 1753 388 
Q 2084 388 2306 591 
Q 2528 794 2588 1216 
z
" transform="scale(0.015625)"/>
       <path id="ArialMT-28" d="M 1497 -1347 
Q 1031 -759 709 28 
Q 388 816 388 1659 
Q 388 2403 628 3084 
Q 909 3875 1497 4659 
L 1900 4659 
Q 1522 4009 1400 3731 
Q 1209 3300 1100 2831 
Q 966 2247 966 1656 
Q 966 153 1900 -1347 
L 1497 -1347 
z
" transform="scale(0.015625)"/>
       <path id="ArialMT-2013" d="M -13 1431 
L -13 1884 
L 3547 1884 
L 3547 1431 
L -13 1431 
z
" transform="scale(0.015625)"/>
       <path id="ArialMT-34" d="M 2069 0 
L 2069 1097 
L 81 1097 
L 81 1613 
L 2172 4581 
L 2631 4581 
L 2631 1613 
L 3250 1613 
L 3250 1097 
L 2631 1097 
L 2631 0 
L 2069 0 
z
M 2069 1613 
L 2069 3678 
L 634 1613 
L 2069 1613 
z
" transform="scale(0.015625)"/>
       <path id="ArialMT-29" d="M 791 -1347 
L 388 -1347 
Q 1322 153 1322 1656 
Q 1322 2244 1188 2822 
Q 1081 3291 891 3722 
Q 769 4003 388 4659 
L 791 4659 
Q 1378 3875 1659 3084 
Q 1900 2403 1900 1659 
Q 1900 816 1576 28 
Q 1253 -759 791 -1347 
z
" transform="scale(0.015625)"/>
      </defs>
      <use xlink:href="#ArialMT-424"/>
      <use xlink:href="#ArialMT-430" transform="translate(76.025391 0)"/>
      <use xlink:href="#ArialMT-43a" transform="translate(131.640625 0)"/>
      <use xlink:href="#ArialMT-442" transform="translate(176.515625 0)"/>
      <use xlink:href="#ArialMT-438" transform="translate(222.316406 0)"/>
      <use xlink:href="#ArialMT-447" transform="translate(278.175781 0)"/>
      <use xlink:href="#ArialMT-435" transform="translate(330.275391 0)"/>
      <use xlink:href="#ArialMT-441" transform="translate(385.890625 0)"/>
      <use xlink:href="#ArialMT-43a" transform="translate(435.890625 0)"/>
      <use xlink:href="#ArialMT-43e" transform="translate(480.765625 0)"/>
      <use xlink:href="#ArialMT-435" transform="translate(536.380859 0)"/>
      <use xlink:href="#ArialMT-20" transform="translate(591.996094 0)"/>
      <use xlink:href="#ArialMT-43f" transform="translate(619.779297 0)"/>
      <use xlink:href="#ArialMT-43e" transform="translate(673.929688 0)"/>
      <use xlink:href="#ArialMT-442" transform="translate(727.294922 0)"/>
      <use xlink:href="#ArialMT-440" transform="translate(773.095703 0)"/>
      <use xlink:href="#ArialMT-435" transform="translate(828.710938 0)"/>
      <use xlink:href="#ArialMT-431" transform="translate(883.201172 0)"/>
      <use xlink:href="#ArialMT-43b" transform="translate(935.976562 0)"/>
      <use xlink:href="#ArialMT-435" transform="translate(994.326172 0)"/>
      <use xlink:href="#ArialMT-43d" transform="translate(1049.941406 0)"/>
      <use xlink:href="#ArialMT-438" transform="translate(1105.166016 0)"/>
      <use xlink:href="#ArialMT-435" transform="translate(1161.025391 0)"/>
      <use xlink:href="#ArialMT-20" transform="translate(1216.640625 0)"/>
      <use xlink:href="#ArialMT-442" transform="translate(1244.423828 0)"/>
      <use xlink:href="#ArialMT-435" transform="translate(1289.099609 0)"/>
      <use xlink:href="#ArialMT-43f" transform="translate(1344.714844 0)"/>
      <use xlink:href="#ArialMT-43b" transform="translate(1398.865234 0)"/>
      <use xlink:href="#ArialMT-430" transform="translate(1457.214844 0)"/>
      <use xlink:href="#ArialMT-20" transform="translate(1512.830078 0)"/>
      <use xlink:href="#ArialMT-28" transform="translate(1540.613281 0)"/>
      <use xlink:href="#ArialMT-32" transform="translate(1573.914062 0)"/>
      <use xlink:href="#ArialMT-30" transform="translate(1629.529297 0)"/>
      <use xlink:href="#ArialMT-30" transform="translate(1685.144531 0)"/>
      <use xlink:href="#ArialMT-30" transform="translate(1740.759766 0)"/>
      <use xlink:href="#ArialMT-2013" transform="translate(1796.375 0)"/>
      <use xlink:href="#ArialMT-32" transform="translate(1851.990234 0)"/>
      <use xlink:href="#ArialMT-30" transform="translate(1907.605469 0)"/>
      <use xlink:href="#ArialMT-32" transform="translate(1963.220703 0)"/>
      <use xlink:href="#ArialMT-34" transform="translate(2018.835938 0)"/>
      <use xlink:href="#ArialMT-29" transform="translate(2074.451172 0)"/>
     </g>
    </g>
    <g id="line2d_23">
     <path d="M 70.38382 335.375706 
L 81.38382 335.375706 
L 92.38382 335.375706 
" style="fill: none; stroke-dasharray: 7.4,3.2; stroke-dashoffset: 0; stroke: #63bbf0; stroke-width: 2"/>
    </g>
    <g id="text_17">
     <!-- Результат, основанный на поулченных коэффициентах регрессии -->
     <g transform="translate(101.18382 339.225706) scale(0.11 -0.11)">
      <defs>
       <path id="ArialMT-420" d="M 494 0 
L 494 4581 
L 2222 4581 
Q 2678 4581 2919 4538 
Q 3256 4481 3484 4323 
Q 3713 4166 3852 3881 
Q 3991 3597 3991 3256 
Q 3991 2672 3619 2267 
Q 3247 1863 2275 1863 
L 1100 1863 
L 1100 0 
L 494 0 
z
M 1100 2403 
L 2284 2403 
Q 2872 2403 3119 2622 
Q 3366 2841 3366 3238 
Q 3366 3525 3220 3729 
Q 3075 3934 2838 4000 
Q 2684 4041 2272 4041 
L 1100 4041 
L 1100 2403 
z
" transform="scale(0.015625)"/>
       <path id="ArialMT-437" d="M 1156 1500 
L 1156 1941 
Q 1513 1944 1642 1969 
Q 1772 1994 1887 2119 
Q 2003 2244 2003 2431 
Q 2003 2659 1851 2795 
Q 1700 2931 1459 2931 
Q 984 2931 794 2372 
L 259 2459 
Q 509 3394 1466 3394 
Q 1997 3394 2298 3103 
Q 2600 2813 2600 2409 
Q 2600 2003 2206 1763 
Q 2456 1628 2581 1420 
Q 2706 1213 2706 928 
Q 2706 481 2381 203 
Q 2056 -75 1472 -75 
Q 338 -75 156 934 
L 684 1047 
Q 756 728 976 553 
Q 1197 378 1481 378 
Q 1766 378 1955 539 
Q 2144 700 2144 950 
Q 2144 1144 2025 1287 
Q 1906 1431 1772 1467 
Q 1638 1503 1284 1503 
Q 1256 1503 1156 1500 
z
" transform="scale(0.015625)"/>
       <path id="ArialMT-443" d="M 397 -1278 
L 334 -750 
Q 519 -800 656 -800 
Q 844 -800 956 -737 
Q 1069 -675 1141 -563 
Q 1194 -478 1313 -144 
Q 1328 -97 1363 -6 
L 103 3319 
L 709 3319 
L 1400 1397 
Q 1534 1031 1641 628 
Q 1738 1016 1872 1384 
L 2581 3319 
L 3144 3319 
L 1881 -56 
Q 1678 -603 1566 -809 
Q 1416 -1088 1222 -1217 
Q 1028 -1347 759 -1347 
Q 597 -1347 397 -1278 
z
" transform="scale(0.015625)"/>
       <path id="ArialMT-44c" d="M 413 3319 
L 975 3319 
L 975 2022 
L 1688 2022 
Q 2384 2022 2761 1751 
Q 3138 1481 3138 1006 
Q 3138 591 2823 295 
Q 2509 0 1819 0 
L 413 0 
L 413 3319 
z
M 975 463 
L 1566 463 
Q 2100 463 2328 594 
Q 2556 725 2556 1003 
Q 2556 1219 2387 1387 
Q 2219 1556 1641 1556 
L 975 1556 
L 975 463 
z
" transform="scale(0.015625)"/>
       <path id="ArialMT-2c" d="M 569 0 
L 569 641 
L 1209 641 
L 1209 0 
Q 1209 -353 1084 -570 
Q 959 -788 688 -906 
L 531 -666 
Q 709 -588 793 -436 
Q 878 -284 888 0 
L 569 0 
z
" transform="scale(0.015625)"/>
       <path id="ArialMT-432" d="M 425 3319 
L 1722 3319 
Q 2200 3319 2433 3239 
Q 2666 3159 2833 2946 
Q 3000 2734 3000 2438 
Q 3000 2200 2901 2023 
Q 2803 1847 2606 1728 
Q 2841 1650 2995 1436 
Q 3150 1222 3150 928 
Q 3119 456 2812 228 
Q 2506 0 1922 0 
L 425 0 
L 425 3319 
z
M 988 1922 
L 1588 1922 
Q 1947 1922 2081 1959 
Q 2216 1997 2322 2111 
Q 2428 2225 2428 2384 
Q 2428 2647 2242 2750 
Q 2056 2853 1606 2853 
L 988 2853 
L 988 1922 
z
M 988 463 
L 1728 463 
Q 2206 463 2384 573 
Q 2563 684 2572 956 
Q 2572 1116 2469 1252 
Q 2366 1388 2200 1423 
Q 2034 1459 1669 1459 
L 988 1459 
L 988 463 
z
" transform="scale(0.015625)"/>
       <path id="ArialMT-44b" d="M 3581 3319 
L 4144 3319 
L 4144 0 
L 3581 0 
L 3581 3319 
z
M 434 3319 
L 997 3319 
L 997 2022 
L 1709 2022 
Q 2406 2022 2782 1751 
Q 3159 1481 3159 1006 
Q 3159 591 2845 295 
Q 2531 0 1841 0 
L 434 0 
L 434 3319 
z
M 997 463 
L 1588 463 
Q 2122 463 2350 594 
Q 2578 725 2578 1003 
Q 2578 1219 2409 1387 
Q 2241 1556 1663 1556 
L 997 1556 
L 997 463 
z
" transform="scale(0.015625)"/>
       <path id="ArialMT-439" d="M 422 3319 
L 984 3319 
L 984 788 
L 2544 3319 
L 3150 3319 
L 3150 0 
L 2588 0 
L 2588 2516 
L 1028 0 
L 422 0 
L 422 3319 
z
M 2374 4575 
L 2759 4575 
Q 2712 4184 2473 3975 
Q 2234 3766 1837 3766 
Q 1437 3766 1198 3973 
Q 959 4181 912 4575 
L 1296 4575 
Q 1340 4363 1469 4258 
Q 1599 4153 1818 4153 
Q 2071 4153 2201 4254 
Q 2331 4356 2374 4575 
z
" transform="scale(0.015625)"/>
       <path id="ArialMT-445" d="M 47 0 
L 1259 1725 
L 138 3319 
L 841 3319 
L 1350 2541 
Q 1494 2319 1581 2169 
Q 1719 2375 1834 2534 
L 2394 3319 
L 3066 3319 
L 1919 1756 
L 3153 0 
L 2463 0 
L 1781 1031 
L 1600 1309 
L 728 0 
L 47 0 
z
" transform="scale(0.015625)"/>
       <path id="ArialMT-44d" d="M 1263 1931 
L 1263 1469 
L 2434 1469 
Q 2381 928 2154 658 
Q 1928 388 1525 388 
Q 813 388 684 1213 
L 134 1141 
Q 222 594 589 259 
Q 956 -75 1550 -75 
Q 2256 -116 2643 373 
Q 3031 863 3013 1659 
Q 3013 2469 2609 2931 
Q 2206 3394 1509 3394 
Q 953 3394 609 3098 
Q 266 2803 191 2338 
L 738 2250 
Q 875 2928 1528 2928 
Q 1903 2928 2142 2651 
Q 2381 2375 2434 1931 
L 1263 1931 
z
" transform="scale(0.015625)"/>
       <path id="ArialMT-444" d="M 2353 4581 
L 2916 4581 
L 2916 2997 
Q 3091 3197 3300 3295 
Q 3509 3394 3750 3394 
Q 4341 3394 4686 2901 
Q 5031 2409 5031 1663 
Q 5031 884 4659 404 
Q 4288 -75 3734 -75 
Q 3553 -75 3365 -18 
Q 3178 38 2916 288 
L 2916 -1272 
L 2353 -1272 
L 2353 288 
Q 2184 106 1979 15 
Q 1775 -75 1538 -75 
Q 1016 -75 625 383 
Q 234 841 234 1694 
Q 234 2416 587 2905 
Q 941 3394 1538 3394 
Q 1788 3394 1991 3295 
Q 2194 3197 2353 2997 
L 2353 4581 
z
M 2913 1647 
Q 2913 897 3119 639 
Q 3325 381 3634 381 
Q 3978 381 4220 698 
Q 4463 1016 4463 1684 
Q 4463 2316 4239 2625 
Q 4016 2934 3666 2934 
Q 3291 2934 3102 2612 
Q 2913 2291 2913 1647 
z
M 806 1709 
Q 806 1006 1042 697 
Q 1278 388 1628 388 
Q 1994 388 2175 695 
Q 2356 1003 2356 1619 
Q 2356 2275 2165 2603 
Q 1975 2931 1591 2931 
Q 1244 2931 1025 2611 
Q 806 2291 806 1709 
z
" transform="scale(0.015625)"/>
       <path id="ArialMT-446" d="M 431 3319 
L 994 3319 
L 994 463 
L 2550 463 
L 2550 3319 
L 3113 3319 
L 3113 463 
L 3475 463 
L 3475 -941 
L 3013 -941 
L 3013 0 
L 431 0 
L 431 3319 
z
" transform="scale(0.015625)"/>
       <path id="ArialMT-433" d="M 425 3319 
L 2334 3319 
L 2334 2853 
L 988 2853 
L 988 0 
L 425 0 
L 425 3319 
z
" transform="scale(0.015625)"/>
      </defs>
      <use xlink:href="#ArialMT-420"/>
      <use xlink:href="#ArialMT-435" transform="translate(62.324219 0)"/>
      <use xlink:href="#ArialMT-437" transform="translate(115.689453 0)"/>
      <use xlink:href="#ArialMT-443" transform="translate(160.414062 0)"/>
      <use xlink:href="#ArialMT-43b" transform="translate(208.164062 0)"/>
      <use xlink:href="#ArialMT-44c" transform="translate(266.513672 0)"/>
      <use xlink:href="#ArialMT-442" transform="translate(310.863281 0)"/>
      <use xlink:href="#ArialMT-430" transform="translate(355.539062 0)"/>
      <use xlink:href="#ArialMT-442" transform="translate(408.904297 0)"/>
      <use xlink:href="#ArialMT-2c" transform="translate(443.580078 0)"/>
      <use xlink:href="#ArialMT-20" transform="translate(471.363281 0)"/>
      <use xlink:href="#ArialMT-43e" transform="translate(499.146484 0)"/>
      <use xlink:href="#ArialMT-441" transform="translate(554.761719 0)"/>
      <use xlink:href="#ArialMT-43d" transform="translate(604.761719 0)"/>
      <use xlink:href="#ArialMT-43e" transform="translate(659.986328 0)"/>
      <use xlink:href="#ArialMT-432" transform="translate(715.601562 0)"/>
      <use xlink:href="#ArialMT-430" transform="translate(767.601562 0)"/>
      <use xlink:href="#ArialMT-43d" transform="translate(823.216797 0)"/>
      <use xlink:href="#ArialMT-43d" transform="translate(878.441406 0)"/>
      <use xlink:href="#ArialMT-44b" transform="translate(933.666016 0)"/>
      <use xlink:href="#ArialMT-439" transform="translate(1005.541016 0)"/>
      <use xlink:href="#ArialMT-20" transform="translate(1061.400391 0)"/>
      <use xlink:href="#ArialMT-43d" transform="translate(1089.183594 0)"/>
      <use xlink:href="#ArialMT-430" transform="translate(1144.408203 0)"/>
      <use xlink:href="#ArialMT-20" transform="translate(1200.023438 0)"/>
      <use xlink:href="#ArialMT-43f" transform="translate(1227.806641 0)"/>
      <use xlink:href="#ArialMT-43e" transform="translate(1281.957031 0)"/>
      <use xlink:href="#ArialMT-443" transform="translate(1336.447266 0)"/>
      <use xlink:href="#ArialMT-43b" transform="translate(1384.197266 0)"/>
      <use xlink:href="#ArialMT-447" transform="translate(1440.296875 0)"/>
      <use xlink:href="#ArialMT-435" transform="translate(1492.396484 0)"/>
      <use xlink:href="#ArialMT-43d" transform="translate(1548.011719 0)"/>
      <use xlink:href="#ArialMT-43d" transform="translate(1603.236328 0)"/>
      <use xlink:href="#ArialMT-44b" transform="translate(1658.460938 0)"/>
      <use xlink:href="#ArialMT-445" transform="translate(1730.335938 0)"/>
      <use xlink:href="#ArialMT-20" transform="translate(1780.335938 0)"/>
      <use xlink:href="#ArialMT-43a" transform="translate(1808.119141 0)"/>
      <use xlink:href="#ArialMT-43e" transform="translate(1852.994141 0)"/>
      <use xlink:href="#ArialMT-44d" transform="translate(1908.609375 0)"/>
      <use xlink:href="#ArialMT-444" transform="translate(1959.634766 0)"/>
      <use xlink:href="#ArialMT-444" transform="translate(2041.910156 0)"/>
      <use xlink:href="#ArialMT-438" transform="translate(2124.185547 0)"/>
      <use xlink:href="#ArialMT-446" transform="translate(2180.044922 0)"/>
      <use xlink:href="#ArialMT-438" transform="translate(2237.320312 0)"/>
      <use xlink:href="#ArialMT-435" transform="translate(2293.179688 0)"/>
      <use xlink:href="#ArialMT-43d" transform="translate(2348.794922 0)"/>
      <use xlink:href="#ArialMT-442" transform="translate(2404.019531 0)"/>
      <use xlink:href="#ArialMT-430" transform="translate(2448.695312 0)"/>
      <use xlink:href="#ArialMT-445" transform="translate(2504.310547 0)"/>
      <use xlink:href="#ArialMT-20" transform="translate(2554.310547 0)"/>
      <use xlink:href="#ArialMT-440" transform="translate(2582.09375 0)"/>
      <use xlink:href="#ArialMT-435" transform="translate(2637.708984 0)"/>
      <use xlink:href="#ArialMT-433" transform="translate(2693.324219 0)"/>
      <use xlink:href="#ArialMT-440" transform="translate(2729.798828 0)"/>
      <use xlink:href="#ArialMT-435" transform="translate(2785.414062 0)"/>
      <use xlink:href="#ArialMT-441" transform="translate(2841.029297 0)"/>
      <use xlink:href="#ArialMT-441" transform="translate(2891.029297 0)"/>
      <use xlink:href="#ArialMT-438" transform="translate(2941.029297 0)"/>
      <use xlink:href="#ArialMT-438" transform="translate(2996.888672 0)"/>
     </g>
    </g>
   </g>
  </g>
 </g>
 <defs>
  <clipPath id="p4c565fc7cf">
   <rect x="60.48382" y="18.800863" width="669.6" height="332.64"/>
  </clipPath>
 </defs>
</svg>
